inDegrees=no
num_controls=7
num_derivatives=13
num_iterations=166
num_multipliers=7
num_parameters=0
num_slacks=7
num_states=26
objective=5.627509
objective_accelerations=0.430359
objective_balance=0.044178
objective_effort=0.415833
objective_height=4.618096
objective_ligament=0.119044
solver_duration=1689.246159
status=Solve_Succeeded
success=true
DataType=double
version=3
OpenSimVersion=4.4-2022-07-23-0e9fedc
endheader
time	/jointset/ground_pelvis/pelvis_tilt/value	/jointset/ground_pelvis/pelvis_tx/value	/jointset/ground_pelvis/pelvis_ty/value	/jointset/hip_l/hip_flexion_l/value	/jointset/hip_l/hip_adduction_l/value	/jointset/hip_l/hip_rotation_l/value	/jointset/back/lumbar_extension/value	/jointset/patellofemoral_l/patellar_flexion_l/value	/jointset/knee_l/knee_flexion_l/value	/jointset/knee_l/knee_adduction_l/value	/jointset/knee_l/knee_rotation_l/value	/jointset/ankle_l/ankle_angle_l/value	/jointset/subtalar_l/subtalar_angle_l/value	/jointset/ground_pelvis/pelvis_tilt/speed	/jointset/ground_pelvis/pelvis_tx/speed	/jointset/ground_pelvis/pelvis_ty/speed	/jointset/hip_l/hip_flexion_l/speed	/jointset/hip_l/hip_adduction_l/speed	/jointset/hip_l/hip_rotation_l/speed	/jointset/back/lumbar_extension/speed	/jointset/patellofemoral_l/patellar_flexion_l/speed	/jointset/knee_l/knee_flexion_l/speed	/jointset/knee_l/knee_adduction_l/speed	/jointset/knee_l/knee_rotation_l/speed	/jointset/ankle_l/ankle_angle_l/speed	/jointset/subtalar_l/subtalar_angle_l/speed	/forceset/tau_hip_flexion_l	/forceset/tau_hip_adduction_l	/forceset/tau_hip_rotation_l	/forceset/tau_knee_flexion_l	/forceset/tau_ankle_angle_l	/forceset/tau_subtalar_angle_l	/forceset/tau_lumbar_extension	lambda_cid13_p0	lambda_cid13_p1	lambda_cid13_p2	lambda_cid13_p3	lambda_cid13_p4	lambda_cid13_p5	lambda_cid14_p0	/jointset/ground_pelvis/pelvis_tilt/accel	/jointset/ground_pelvis/pelvis_tx/accel	/jointset/ground_pelvis/pelvis_ty/accel	/jointset/hip_l/hip_flexion_l/accel	/jointset/hip_l/hip_adduction_l/accel	/jointset/hip_l/hip_rotation_l/accel	/jointset/back/lumbar_extension/accel	/jointset/patellofemoral_l/patellar_flexion_l/accel	/jointset/knee_l/knee_flexion_l/accel	/jointset/knee_l/knee_adduction_l/accel	/jointset/knee_l/knee_rotation_l/accel	/jointset/ankle_l/ankle_angle_l/accel	/jointset/subtalar_l/subtalar_angle_l/accel	gamma_cid13_p0	gamma_cid13_p1	gamma_cid13_p2	gamma_cid13_p3	gamma_cid13_p4	gamma_cid13_p5	gamma_cid14_p0
0	-0.0368221486410206	0.05667733455071502	0.9203416042466565	0.3085811930696054	-0.295640274360106	-0.301603841913742	-0.3879500408040475	0.2499276582270899	0.249927658227084	-0.174532834133369	-0.1745295817112982	-0.0008036543073733089	0.000437768749150018	0	0	0	0	0	0	0	0	0	0	0	0	0	0.06354105500722211	-0.04768435364219453	-0.02106019384918174	-0.2528125920332592	0.2182929988075007	-0.01618845541234487	0.01596355183437928	26.24109522970729	0.04347897178386045	2.271618779513793	-4.345547385769883	-633.8416298768794	-73.88696208880015	-23.19688944193589	-0.3708294419849433	-1.518565507180275	-0.7324380400245385	7.333313369912982	-0.6628942264889141	2.937592748968076	-6.672982701104329	8.378042222466872	8.378042222468149	1.321645687203633	-0.04106148103461758	1.955130043375207	-0.04698118510200494	-2.872085648000245e-09	1.369594841457284e-07	5.060605222766595e-08	7.544042076251778e-10	6.699733533037345e-08	-4.705617197907069e-09	6.545786147962418e-09
0.01	-0.03683775923323433	0.05660266206032443	0.9203058349599693	0.3089381001816722	-0.2956735204965266	-0.3014564087284741	-0.3882823851785678	0.2503383439557903	0.2503383439558758	-0.1744699016543942	-0.1745286301783806	-0.0007078098028450788	0.0004346463073549492	-0.003093023300654805	-0.01482427997548661	-0.007124155689525079	0.07099695879813961	-0.006616612226559647	0.02932509374039031	-0.06605583274066337	0.08178159269038718	0.08178159269039428	0.01253004252483124	0.0001635745978629447	0.01914489455359526	-0.0005974066863706785	0.05918145829914469	-0.06077397687790087	-0.0204342819962893	-0.2496787855341384	0.2107370754557047	-0.0009493999284198781	0.02024127665238806	24.29421011772433	-6.125392964234099	3.131098958750703	-4.773648212794515	-636.176444165582	-86.55960032737524	-23.2015471240245	-0.2741804426972343	-1.447826377625411	-0.697935686766211	6.925212763432265	-0.6561831439718472	2.905735724093176	-6.509927234948388	8.024883524695952	8.024883524696264	1.210244828273673	0.04106091346222816	1.890571490712822	-0.06208577368677331	-2.364500697645892e-08	1.239765259381615e-07	1.057828006839708e-07	2.084711368874182e-08	-2.013376417653851e-08	-4.636527977954418e-08	-1.068126909903798e-10
0.02	-0.03688342839220065	0.05638305334319987	0.9201997178457167	0.3099934420074186	-0.2957719604398445	-0.30102057099828	-0.3892628966153815	0.2515561787579423	0.2515561787579518	-0.1742833564913755	-0.1745268441026239	-0.0004212358869080636	0.0004263567260395586	-0.00601171334480972	-0.0289872453467956	-0.01406956551308311	0.139686942743037	-0.01303876138236812	0.05768090898153477	-0.1296334124572977	0.1614298146756162	0.1614298146756168	0.02472253677567011	0.0001669085263430066	0.03814588228162257	-0.001033427904039141	0.05482186159081057	-0.07386360011375928	-0.0198083701440545	-0.2465449790351476	0.2031811521037838	0.01428965555531396	0.02451900147033521	22.41171251465443	-12.30503669758989	3.991723277270903	-5.330392210187267	-637.5681094408535	-99.14986152335381	-23.2152959588902	-0.3359627906844217	-1.386302586345168	-0.6966888668311301	6.871918399264501	-0.6240016123387059	2.743737049119049	-6.177332096298166	7.951368081435263	7.951368081433819	1.254136032405109	-0.07310961491109584	1.926348678261144	-0.01470409136174991	-4.441792830491759e-08	1.109935677305946e-07	1.609595491402756e-07	4.093982316985846e-08	-1.072648636834505e-07	-8.802494236118129e-08	-6.759411529943177e-09
0.03	-0.03695762571848071	0.05602497865372413	0.9200248485394152	0.3117246003245424	-0.2959335935608818	-0.3003061578026296	-0.3908662016367285	0.2535597808657911	0.2535597808657558	-0.1739767163454485	-0.1745258720160837	5.431350720838558e-05	0.0004144568727094458	-0.008803146257018907	-0.04253163876155116	-0.02089060026455645	0.2061810065489567	-0.01925458359686662	0.08508245363339885	-0.1905741909004412	0.2389173173397927	0.2389173173398016	0.03651754411568803	5.095186186203712e-05	0.05690713342029545	-0.001331370934418172	0.04862730737930519	-0.06563574499805018	-0.01903469746814534	-0.2409875085888941	0.198491613718795	0.0105257432290242	0.02999636521642198	20.70019900002026	-10.46697731684596	3.808662677872348	-4.840013890090732	-639.1176093098189	-94.49499992085876	-23.23764343319894	-0.2470465389859739	-1.324091382902734	-0.672778261904324	6.483586733691337	-0.6154206829922615	2.720452529315479	-5.98444058040926	7.591449305775055	7.591449305777677	1.129026680943833	0.02270179585176921	1.842484730975906	-0.03509958626908858	-6.382208855842511e-08	9.360792935091686e-08	2.213715830094003e-07	5.685152418636848e-08	-1.814286167566199e-07	-1.332796553431206e-07	-1.467529709880413e-08
0.04	-0.03705899997341574	0.05553434329732795	0.9197821753890781	0.3141097865521491	-0.2961563945354559	-0.2993213112892244	-0.393065312414944	0.2563270595895675	0.2563270595895647	-0.1735547574068887	-0.174525351398657	0.0007157696925716781	0.0004000255535966526	-0.01144709906893513	-0.05549937873088528	-0.02763033432021365	0.2704925248523425	-0.02527233209083334	0.1117675725290668	-0.2487945638269909	0.314165137878604	0.3141651378786358	0.04778629530144968	7.661472013260749e-05	0.07532724053117879	-0.001539721060523372	0.04243275316740367	-0.05740788988234175	-0.01826102479164506	-0.2354300381429895	0.1938020753337092	0.006761830902692482	0.03547372896227698	19.04910334915317	-8.636211320393905	3.623012439786306	-4.476626738038245	-639.7931164173588	-89.75794846771265	-23.26787933273847	-0.3064667706253144	-1.270971897261249	-0.6804287276678973	6.435409298757694	-0.5843868682323001	2.600451897880149	-5.633250992979089	7.503431656362204	7.503431656363692	1.14888480155392	-0.04478571036045894	1.858119872702828	0.003214489492923358	-8.319802693409861e-08	7.613151406047392e-08	2.818915609076553e-07	7.267701884278351e-08	-2.553250018620833e-07	-1.786084930755816e-07	-2.261722981673537e-08
0.05	-0.03718616025340839	0.05491692350242629	0.9194723781766818	0.3171274493011531	-0.2964382512431596	-0.298074038643263	-0.3958333253607896	0.2598359201904656	0.2598359201904225	-0.1730224941526536	-0.174524674089056	0.001559797913292063	0.000384125557836152	-0.01394786410616243	-0.06788697297972272	-0.03432440647848628	0.3326678564519865	-0.03105213173127261	0.1375242750288634	-0.304407643422275	0.3872390839472709	0.3872390839472478	0.05859491011007489	4.852369509499163e-05	0.09342382838181816	-0.001610193663086801	0.03654263351579946	-0.05634474929031164	-0.01748184091236682	-0.2310073666637051	0.1879986379123159	0.009483877512449737	0.0406958701433321	17.27511927377552	-9.531388848088531	3.792690068641125	-4.251610967931052	-640.6185100748033	-90.85888508753622	-23.3051086113351	-0.2163202860455851	-1.20799743585296	-0.6632428699492613	6.052761144832947	-0.5677951893592179	2.538837415376083	-5.465279153833309	7.154195917964916	7.15419591795594	1.036174969843435	0.01667712136065093	1.777240754629769	-0.007709704663296257	-9.428895350709822e-08	3.541599202888644e-08	3.121219851965351e-07	8.078638336853736e-08	-3.085578263792871e-07	-2.078925444103056e-07	-2.942230138614831e-08
0.06	-0.03733721596695348	0.05417855891560421	0.9190957709606937	0.320755698576948	-0.2967765096827406	-0.2965740873744176	-0.399145457644809	0.2640644842191324	0.2640644842191179	-0.1723842797204454	-0.1745245781059329	0.002583154515195007	0.000368414522143309	-0.01622618577419861	-0.07968833711497052	-0.04099233503859168	0.3926098302222841	-0.0365526784680681	0.1623032971025103	-0.357618431458706	0.4581058234497661	0.4581058234496784	0.06897653089175025	-3.965053248800309e-05	0.1111929167678587	-0.001501929046948818	0.03065251386377312	-0.05528160869834924	-0.016702657032456	-0.2265846951847926	0.1821952004907979	0.01220592412208585	0.04591801132416947	15.55563613866974	-10.43550435245423	3.963102105352536	-4.149258983328981	-640.6557567652899	-91.89056180814342	-23.34836611867912	-0.2619780967866322	-1.153725874543644	-0.6752000080344455	5.988737732888359	-0.5285362875035025	2.404915812650428	-5.152792681208192	7.061990343127837	7.061990343127399	1.06348599616401	-0.0568023508693111	1.792619979782705	0.03896193323312445	-1.0503103747788e-07	-6.278018707591324e-09	3.410770598597569e-07	8.857085820457914e-08	-3.60920606240143e-07	-2.365010257914406e-07	-3.61795051177289e-08
